<svg width="69" height="66" viewBox="0 0 69 66" fill="none" xmlns="http://www.w3.org/2000/svg">
<path fill-rule="evenodd" clip-rule="evenodd" d="M46.1667 24.8751C46.1667 27.7483 44.9726 30.5038 42.8472 32.5354C40.7218 34.567 37.8391 35.7084 34.8333 35.7084C31.8275 35.7084 28.9449 34.567 26.8195 32.5354C24.694 30.5038 23.5 27.7483 23.5 24.8751C23.5 22.0019 24.694 19.2464 26.8195 17.2148C28.9449 15.1831 31.8275 14.0417 34.8333 14.0417C37.8391 14.0417 40.7218 15.1831 42.8472 17.2148C44.9726 19.2464 46.1667 22.0019 46.1667 24.8751ZM40.5 24.8751C40.5 26.3117 39.903 27.6894 38.8403 28.7052C37.7776 29.7211 36.3362 30.2917 34.8333 30.2917C33.3304 30.2917 31.8891 29.7211 30.8264 28.7052C29.7637 27.6894 29.1667 26.3117 29.1667 24.8751C29.1667 23.4385 29.7637 22.0607 30.8264 21.0449C31.8891 20.0291 33.3304 19.4584 34.8333 19.4584C36.3362 19.4584 37.7776 20.0291 38.8403 21.0449C39.903 22.0607 40.5 23.4385 40.5 24.8751Z" fill="black"/>
<path fill-rule="evenodd" clip-rule="evenodd" d="M34.8334 3.20837C17.6209 3.20837 3.66675 16.5469 3.66675 33C3.66675 49.4532 17.6209 62.7917 34.8334 62.7917C52.0459 62.7917 66.0001 49.4532 66.0001 33C66.0001 16.5469 52.0459 3.20837 34.8334 3.20837ZM9.33342 33C9.33342 38.6605 11.3536 43.8713 14.7394 48.0096C17.1172 45.0248 20.1848 42.6058 23.7025 40.9417C27.2202 39.2776 31.0927 38.4135 35.0176 38.4167C38.8917 38.4132 42.7155 39.255 46.1977 40.878C49.6799 42.501 52.7287 44.8623 55.1116 47.7821C57.5665 44.7044 59.2195 41.1121 59.9336 37.3025C60.6478 33.4929 60.4026 29.5754 59.2185 25.8744C58.0343 22.1733 55.9452 18.795 53.124 16.0189C50.3027 13.2428 46.8305 11.1488 42.9945 9.91017C39.1585 8.67151 35.0691 8.3238 31.0647 8.8958C27.0602 9.4678 23.2558 10.9431 19.9663 13.1996C16.6767 15.456 13.9965 18.4289 12.1476 21.872C10.2986 25.3152 9.33393 29.1297 9.33342 33ZM34.8334 57.375C28.9796 57.3834 23.3025 55.4585 18.7627 51.9259C20.5901 49.4254 23.0222 47.3838 25.8523 45.9748C28.6824 44.5658 31.8266 43.8312 35.0176 43.8334C38.1687 43.831 41.275 44.5472 44.0784 45.9226C46.8818 47.2981 49.3015 49.293 51.1364 51.7417C46.5614 55.389 40.7907 57.383 34.8334 57.375Z" fill="black"/>
</svg>
