<svg width="187" height="110" viewBox="0 0 187 110" fill="none" xmlns="http://www.w3.org/2000/svg">
<path d="M32 15.5H157C173.292 15.5 186.5 28.7076 186.5 45V63C186.5 79.2924 173.292 92.5 157 92.5H32C15.7076 92.5 2.5 79.2924 2.5 63V45C2.5 28.7076 15.7076 15.5 32 15.5Z" stroke="black"/>
<circle cx="55" cy="55" r="55" fill="black"/>
<path d="M30.8889 48.375L36.0556 34.5938H73.9444L79.1111 48.375M73.9444 63.6875C72.5742 63.6875 71.26 63.2035 70.2911 62.342C69.3221 61.4805 68.7778 60.3121 68.7778 59.0938C68.7778 57.8754 69.3221 56.707 70.2911 55.8455C71.26 54.984 72.5742 54.5 73.9444 54.5C75.3147 54.5 76.6289 54.984 77.5978 55.8455C78.5668 56.707 79.1111 57.8754 79.1111 59.0938C79.1111 60.3121 78.5668 61.4805 77.5978 62.342C76.6289 63.2035 75.3147 63.6875 73.9444 63.6875ZM36.0556 63.6875C34.6853 63.6875 33.3711 63.2035 32.4022 62.342C31.4332 61.4805 30.8889 60.3121 30.8889 59.0938C30.8889 57.8754 31.4332 56.707 32.4022 55.8455C33.3711 54.984 34.6853 54.5 36.0556 54.5C37.4258 54.5 38.74 54.984 39.7089 55.8455C40.6779 56.707 41.2222 57.8754 41.2222 59.0938C41.2222 60.3121 40.6779 61.4805 39.7089 62.342C38.74 63.2035 37.4258 63.6875 36.0556 63.6875ZM78.8356 33.0625C78.1467 31.2862 76.2178 30 73.9444 30H36.0556C33.7822 30 31.8533 31.2862 31.1644 33.0625L24 51.4375V75.9375C24 76.7497 24.3629 77.5287 25.0089 78.103C25.6548 78.6773 26.5309 79 27.4444 79H30.8889C31.8024 79 32.6785 78.6773 33.3245 78.103C33.9704 77.5287 34.3333 76.7497 34.3333 75.9375V72.875H75.6667V75.9375C75.6667 76.7497 76.0296 77.5287 76.6755 78.103C77.3215 78.6773 78.1976 79 79.1111 79H82.5556C83.4691 79 84.3452 78.6773 84.9911 78.103C85.6371 77.5287 86 76.7497 86 75.9375V51.4375L78.8356 33.0625Z" fill="white"/>
</svg>
