<svg width="385" height="327" viewBox="0 0 385 327" fill="none" xmlns="http://www.w3.org/2000/svg">
<g clip-path="url(#clip0_298_1291)">
<path d="M1 1H384V326H1V1Z" fill="white" stroke="#1A1A1A" stroke-width="2"/>
<path d="M193 144C181.96 144 173 152.96 173 164C173 175.04 181.96 184 193 184C204.04 184 213 175.04 213 164C213 152.96 204.04 144 193 144ZM193 180C184.18 180 177 172.82 177 164C177 155.18 184.18 148 193 148C201.82 148 209 155.18 209 164C209 172.82 201.82 180 193 180ZM188 173L202 164L188 155V173Z" fill="#1A1A1A"/>
</g>
<defs>
<clipPath id="clip0_298_1291">
<rect width="385" height="327" fill="white"/>
</clipPath>
</defs>
</svg>
